<?xml version="1.0" standalone="no"?>
<!DOCTYPE svg PUBLIC "-//W3C//DTD SVG 20010904//EN"
 "http://www.w3.org/TR/2001/REC-SVG-20010904/DTD/svg10.dtd">
<svg version="1.0" xmlns="http://www.w3.org/2000/svg"
 width="500.000000pt" height="500.000000pt" viewBox="0 0 500.000000 500.000000"
 preserveAspectRatio="xMidYMid meet">

<g transform="translate(0.000000,500.000000) scale(0.100000,-0.100000)"
fill="#221b69" stroke="none">
<path d="M2514 3894 c-17 -75 -89 -316 -119 -402 -39 -107 -93 -197 -131 -214
-28 -13 -64 0 -152 59 -29 19 -55 33 -58 31 -2 -3 5 -76 16 -164 47 -366 60
-474 60 -506 0 -50 -4 -47 -215 137 -120 105 -192 165 -199 165 -3 0 -6 -12
-6 -26 0 -14 -7 -51 -16 -81 -23 -77 -41 -84 -158 -54 -50 13 -131 37 -180 53
-48 16 -91 27 -94 24 -4 -5 15 -51 108 -261 43 -96 64 -163 64 -210 l1 -50
-82 -40 c-46 -22 -83 -43 -83 -46 0 -3 28 -26 63 -50 34 -23 64 -45 67 -49 3
-3 73 -56 156 -117 165 -123 189 -145 181 -166 -3 -8 -71 -67 -151 -132 -81
-65 -145 -119 -144 -121 2 -1 118 -26 257 -54 183 -37 258 -56 268 -68 8 -11
12 -48 13 -101 0 -75 2 -82 18 -76 28 10 322 181 391 227 96 63 93 68 -42 68
-137 0 -151 8 -152 93 0 45 3 52 20 52 17 0 21 -8 25 -50 l5 -50 355 0 355 0
3 273 2 272 -365 0 -365 0 0 -26 c0 -19 -4 -25 -17 -22 -15 3 -18 17 -21 101
-3 92 -1 98 22 122 18 18 36 25 65 25 38 0 40 2 43 33 2 24 8 32 23 32 15 0
21 -8 23 -32 l3 -33 59 0 59 0 3 33 c2 24 8 32 23 32 15 0 21 -8 23 -32 l3
-33 59 0 59 0 3 33 c2 24 8 32 23 32 15 0 21 -8 23 -32 3 -33 4 -33 58 -33 49
0 54 2 54 23 0 31 15 51 34 44 10 -4 16 -18 16 -37 0 -29 2 -30 45 -30 33 0
50 -6 65 -22 19 -21 20 -33 20 -373 0 -301 -2 -354 -16 -373 -15 -21 -20 -22
-195 -22 -195 0 -262 -10 -284 -44 -10 -16 -14 -87 -17 -288 l-4 -268 33 0 32
0 -2 277 c-2 250 0 278 14 281 9 2 120 -57 245 -131 l229 -133 3 92 c2 62 7
96 16 103 13 11 76 25 341 77 77 14 148 30 158 33 15 6 -11 31 -130 127 -93
75 -149 127 -151 140 -2 17 21 39 110 105 62 46 167 123 233 172 66 49 120 93
120 99 0 6 -28 21 -61 35 -72 28 -104 55 -104 87 0 36 47 160 140 371 38 85
49 115 42 115 -4 0 -43 -11 -87 -25 -195 -63 -268 -75 -297 -52 -18 14 -38 69
-38 106 0 53 -13 51 -91 -18 -168 -147 -214 -188 -254 -223 -68 -61 -77 -54
-65 52 18 153 70 556 76 583 3 15 2 27 -3 27 -4 0 -39 -21 -78 -46 -38 -24
-80 -48 -94 -51 -78 -20 -137 97 -251 497 -23 80 -43 147 -45 149 -2 2 -7 -10
-11 -25z m-237 -1720 c9 -24 -16 -34 -84 -33 -69 2 -89 10 -80 33 5 13 22 16
82 16 60 0 77 -3 82 -16z m237 0 c11 -4 16 -19 16 -45 0 -39 0 -39 -40 -39
-40 0 -40 0 -40 38 0 21 3 42 7 45 8 9 36 9 57 1z m246 -42 l0 -43 -37 3 c-35
3 -38 6 -41 37 -4 39 5 47 48 46 29 0 30 -2 30 -43z m-112 1 c-3 -36 -5 -38
-40 -41 l-38 -3 0 40 0 41 41 0 40 0 -3 -37z m232 -3 l0 -40 -40 0 -40 0 0 40
0 40 40 0 40 0 0 -40z m-642 -38 c3 -29 1 -32 -22 -32 -22 0 -26 5 -26 28 0
33 8 44 30 40 9 -2 16 -16 18 -36z m182 -72 l0 -40 -45 0 c-44 0 -45 0 -45 33
0 43 5 47 52 47 38 0 38 0 38 -40z m110 0 l0 -40 -40 0 -40 0 0 40 0 40 40 0
40 0 0 -40z m120 0 l0 -40 -40 0 -40 0 0 40 0 40 40 0 40 0 0 -40z m110 0 l0
-40 -40 0 -40 0 0 40 0 40 40 0 40 0 0 -40z m120 0 l0 -40 -40 0 -40 0 0 40 0
40 40 0 40 0 0 -40z m-605 -5 c0 -18 -8 -20 -74 -23 -77 -3 -98 5 -87 33 5 13
19 15 83 13 70 -3 78 -5 78 -23z m-45 -70 c0 -14 1 -28 3 -32 1 -5 -8 -9 -20
-11 -20 -3 -23 1 -23 32 0 29 4 36 20 36 15 0 20 -7 20 -25z m190 -35 c0 -40
0 -40 -39 -40 -37 0 -39 2 -43 35 -2 20 -2 38 1 40 2 3 22 5 43 5 38 0 38 0
38 -40z m110 0 l0 -40 -40 0 -40 0 0 40 0 40 40 0 40 0 0 -40z m120 0 l0 -40
-40 0 -40 0 0 40 0 40 40 0 40 0 0 -40z m110 0 l0 -40 -40 0 -40 0 0 40 0 40
40 0 40 0 0 -40z m-480 -50 c0 -18 -7 -20 -79 -20 -76 0 -100 8 -86 30 3 6 42
10 86 10 72 0 79 -2 79 -20z m140 -60 l0 -40 -40 0 -40 0 0 40 0 40 40 0 40 0
0 -40z m110 0 l0 -40 -40 0 -40 0 0 40 0 40 40 0 40 0 0 -40z"/>
<path d="M2368 2399 c-4 -31 -34 -37 -43 -9 -7 22 -25 18 -25 -5 0 -20 44 -47
64 -39 20 8 32 52 18 66 -7 7 -11 3 -14 -13z"/>
<path d="M2646 2412 c-12 -20 2 -60 25 -67 26 -9 49 11 49 43 l0 26 -16 -22
c-19 -28 -36 -24 -44 9 -4 17 -8 20 -14 11z"/>
<path d="M2475 2397 c-8 -19 19 -57 40 -57 21 0 48 38 40 57 -6 16 -8 16 -16
-4 -4 -13 -15 -23 -24 -23 -9 0 -20 10 -24 23 -8 20 -10 20 -16 4z"/>
<path d="M2805 2392 c-4 -11 1 -23 15 -34 27 -22 34 -22 54 -2 18 17 22 54 6
54 -5 0 -10 -6 -10 -14 0 -26 -23 -30 -41 -8 -15 20 -18 20 -24 4z"/>
</g>
</svg>
